# xmcd CD database file
#
# Track frame offsets:
#	150
#	15848
#	29374
#	43769
#	57848
#	70874
#	84832
#	95208
#	108467
#	122283
#	135067
#	148807
#	160483
#	177729
#	191517
#	203831
#	214561
#	228062
#	237629
#	251012
#	263044
#	275441
#	289566
#	305595
#
# Disc length: 4249 seconds
#
# Revision: 0
# Processed by: cddbd v1.5.2PL0 Copyright (c) Steve Scherf et al.
# Submitted via: CDex 1.70beta2
#
DISCID=51109718
DTITLE=Humberto and Ronaldo - Ao vivo em Goiânia
DYEAR=2011
DGENRE=Country
TTITLE0=E deixe o tempo ver
TTITLE1=Bomba relógio
TTITLE2=Chega mais ora cá
TTITLE3=Estrela preferida
TTITLE4=Pé na bunda
TTITLE5=Mata logo essa saudade
TTITLE6=Conversinha
TTITLE7=Romance
TTITLE8=Palavras de adeus
TTITLE9=Pode perguntar
TTITLE10=Rascunho
TTITLE11=Vendendo beijo
TTITLE12=Ai que o amor acontece
TTITLE13=Também sente saudade
TTITLE14=Todo dia
TTITLE15=Opostos e perfeitos
TTITLE16=Ainda não acabou
TTITLE17=Tô beijando outra
TTITLE18=Você na cabeça
TTITLE19=Sou solteiro, sou casado
TTITLE20=Xeque-mate
TTITLE21=Sonho bobo
TTITLE22=Quando a saudade bateu
TTITLE23=Sou foda
EXTD=YEAR: 2011
EXTT0=
EXTT1=
EXTT2=
EXTT3=
EXTT4=
EXTT5=
EXTT6=
EXTT7=
EXTT8=
EXTT9=
EXTT10=
EXTT11=
EXTT12=
EXTT13=
EXTT14=
EXTT15=
EXTT16=
EXTT17=
EXTT18=
EXTT19=
EXTT20=
EXTT21=
EXTT22=
EXTT23=
PLAYORDER=
